STARTFONT 2.1
FONT -SGI-Screen-Bold-R-Normal--16-160-72-72-M-90-ISO8859-1
SIZE 16 72 72
FONTBOUNDINGBOX 9 16 0 -4
COMMENT "Generated by fontforge, http://fontforge.sourceforge.net"
STARTPROPERTIES 23
_DEC_DEVICE_FONTNAMES "FM=Screen-Bold"
FONTNAME_REGISTRY ""
FAMILY_NAME "Screen"
FOUNDRY "SGI"
WEIGHT_NAME "Bold"
SLANT "R"
SETWIDTH_NAME "Normal"
ADD_STYLE_NAME ""
PIXEL_SIZE 16
POINT_SIZE 160
RESOLUTION_X 72
RESOLUTION_Y 72
SPACING "M"
AVERAGE_WIDTH 90
CHARSET_REGISTRY "ISO8859"
CHARSET_ENCODING "1"
CHARSET_COLLECTIONS "ASCII ISO8859-1"
FULL_NAME "Screen Bold"
CAP_HEIGHT 11
X_HEIGHT 8
WEIGHT 10
RESOLUTION 99
QUAD_WIDTH 9
ENDPROPERTIES
CHARS 192
STARTCHAR space
ENCODING 32
SWIDTH 563 0
DWIDTH 9 0
BBX 1 1 8 -4
BITMAP
00
ENDCHAR
STARTCHAR exclam
ENCODING 33
SWIDTH 563 0
DWIDTH 9 0
BBX 2 11 3 0
BITMAP
C0
C0
C0
C0
C0
C0
C0
00
00
C0
C0
ENDCHAR
STARTCHAR quotedbl
ENCODING 34
SWIDTH 563 0
DWIDTH 9 0
BBX 6 4 1 7
BITMAP
CC
CC
CC
CC
ENDCHAR
STARTCHAR numbersign
ENCODING 35
SWIDTH 563 0
DWIDTH 9 0
BBX 9 11 0 0
BITMAP
1B00
1B00
1B00
7F80
3600
3600
3600
FF00
6C00
6C00
6C00
ENDCHAR
STARTCHAR dollar
ENCODING 36
SWIDTH 563 0
DWIDTH 9 0
BBX 7 14 1 -2
BITMAP
10
10
7C
D6
D6
D0
70
1C
16
D6
D6
7C
10
10
ENDCHAR
STARTCHAR percent
ENCODING 37
SWIDTH 563 0
DWIDTH 9 0
BBX 8 11 0 0
BITMAP
73
93
96
EC
0C
18
30
37
69
C9
CE
ENDCHAR
STARTCHAR ampersand
ENCODING 38
SWIDTH 563 0
DWIDTH 9 0
BBX 8 11 0 0
BITMAP
38
6C
6C
78
30
78
CF
C6
C6
CE
7B
ENDCHAR
STARTCHAR quotesingle
ENCODING 39
SWIDTH 562 0
DWIDTH 9 0
BBX 2 4 3 7
BITMAP
C0
C0
C0
C0
ENDCHAR
STARTCHAR parenleft
ENCODING 40
SWIDTH 563 0
DWIDTH 9 0
BBX 5 14 2 -2
BITMAP
18
30
60
60
C0
C0
C0
C0
C0
C0
60
60
30
18
ENDCHAR
STARTCHAR parenright
ENCODING 41
SWIDTH 563 0
DWIDTH 9 0
BBX 5 14 2 -2
BITMAP
C0
60
30
30
18
18
18
18
18
18
30
30
60
C0
ENDCHAR
STARTCHAR asterisk
ENCODING 42
SWIDTH 563 0
DWIDTH 9 0
BBX 8 9 0 1
BITMAP
18
18
D3
FF
3C
FF
CB
18
18
ENDCHAR
STARTCHAR plus
ENCODING 43
SWIDTH 563 0
DWIDTH 9 0
BBX 8 8 0 1
BITMAP
18
18
18
FF
FF
18
18
18
ENDCHAR
STARTCHAR comma
ENCODING 44
SWIDTH 563 0
DWIDTH 9 0
BBX 3 4 2 -2
BITMAP
60
60
20
C0
ENDCHAR
STARTCHAR hyphen
ENCODING 45
SWIDTH 563 0
DWIDTH 9 0
BBX 6 2 1 4
BITMAP
FC
FC
ENDCHAR
STARTCHAR period
ENCODING 46
SWIDTH 563 0
DWIDTH 9 0
BBX 2 2 3 0
BITMAP
C0
C0
ENDCHAR
STARTCHAR slash
ENCODING 47
SWIDTH 563 0
DWIDTH 9 0
BBX 7 12 1 0
BITMAP
06
06
0C
0C
18
18
30
30
60
60
C0
C0
ENDCHAR
STARTCHAR zero
ENCODING 48
SWIDTH 563 0
DWIDTH 9 0
BBX 7 11 1 0
BITMAP
38
6C
C6
CE
DE
F6
E6
C6
C6
6C
38
ENDCHAR
STARTCHAR one
ENCODING 49
SWIDTH 563 0
DWIDTH 9 0
BBX 4 11 3 0
BITMAP
60
E0
60
60
60
60
60
60
60
60
F0
ENDCHAR
STARTCHAR two
ENCODING 50
SWIDTH 563 0
DWIDTH 9 0
BBX 7 11 1 0
BITMAP
38
6C
C6
C6
06
0C
18
30
60
C0
FE
ENDCHAR
STARTCHAR three
ENCODING 51
SWIDTH 563 0
DWIDTH 9 0
BBX 7 11 1 0
BITMAP
38
6C
C6
06
0C
38
0C
06
C6
6C
38
ENDCHAR
STARTCHAR four
ENCODING 52
SWIDTH 563 0
DWIDTH 9 0
BBX 7 11 1 0
BITMAP
0C
1C
1C
3C
6C
6C
CC
FE
0C
0C
0C
ENDCHAR
STARTCHAR five
ENCODING 53
SWIDTH 563 0
DWIDTH 9 0
BBX 8 11 0 0
BITMAP
7F
60
60
60
7C
06
03
03
C3
66
3C
ENDCHAR
STARTCHAR six
ENCODING 54
SWIDTH 563 0
DWIDTH 9 0
BBX 7 11 1 0
BITMAP
3C
66
C0
C0
D8
EC
C6
C6
C6
6C
38
ENDCHAR
STARTCHAR seven
ENCODING 55
SWIDTH 563 0
DWIDTH 9 0
BBX 7 11 1 0
BITMAP
FE
06
06
0C
0C
18
18
30
30
30
30
ENDCHAR
STARTCHAR eight
ENCODING 56
SWIDTH 563 0
DWIDTH 9 0
BBX 7 11 1 0
BITMAP
38
6C
C6
C6
6C
7C
C6
C6
C6
6C
38
ENDCHAR
STARTCHAR nine
ENCODING 57
SWIDTH 563 0
DWIDTH 9 0
BBX 7 11 1 0
BITMAP
38
6C
C6
C6
C6
6E
36
06
06
CC
78
ENDCHAR
STARTCHAR colon
ENCODING 58
SWIDTH 563 0
DWIDTH 9 0
BBX 2 7 3 0
BITMAP
C0
C0
00
00
00
C0
C0
ENDCHAR
STARTCHAR semicolon
ENCODING 59
SWIDTH 563 0
DWIDTH 9 0
BBX 3 9 2 -2
BITMAP
60
60
00
00
00
60
60
20
C0
ENDCHAR
STARTCHAR less
ENCODING 60
SWIDTH 563 0
DWIDTH 9 0
BBX 6 11 1 -1
BITMAP
04
0C
18
30
60
C0
60
30
18
0C
04
ENDCHAR
STARTCHAR equal
ENCODING 61
SWIDTH 563 0
DWIDTH 9 0
BBX 7 6 1 2
BITMAP
FE
FE
00
00
FE
FE
ENDCHAR
STARTCHAR greater
ENCODING 62
SWIDTH 563 0
DWIDTH 9 0
BBX 6 11 2 -1
BITMAP
80
C0
60
30
18
0C
18
30
60
C0
80
ENDCHAR
STARTCHAR question
ENCODING 63
SWIDTH 563 0
DWIDTH 9 0
BBX 7 11 1 0
BITMAP
38
6C
C6
C6
06
0C
18
18
00
18
18
ENDCHAR
STARTCHAR at
ENCODING 64
SWIDTH 563 0
DWIDTH 9 0
BBX 8 11 0 -1
BITMAP
3C
66
C3
CF
DB
DB
DB
CF
C0
63
3E
ENDCHAR
STARTCHAR A
ENCODING 65
SWIDTH 563 0
DWIDTH 9 0
BBX 7 11 1 0
BITMAP
10
38
38
6C
6C
6C
C6
C6
FE
C6
C6
ENDCHAR
STARTCHAR B
ENCODING 66
SWIDTH 563 0
DWIDTH 9 0
BBX 7 11 1 0
BITMAP
F8
CC
C6
C6
CC
F8
CC
C6
C6
CE
FC
ENDCHAR
STARTCHAR C
ENCODING 67
SWIDTH 563 0
DWIDTH 9 0
BBX 7 11 1 0
BITMAP
3C
66
C2
C0
C0
C0
C0
C0
C2
66
3C
ENDCHAR
STARTCHAR D
ENCODING 68
SWIDTH 563 0
DWIDTH 9 0
BBX 7 11 1 0
BITMAP
F8
CC
C6
C6
C6
C6
C6
C6
C6
CC
F8
ENDCHAR
STARTCHAR E
ENCODING 69
SWIDTH 563 0
DWIDTH 9 0
BBX 7 11 1 0
BITMAP
FE
C0
C0
C0
C0
FC
C0
C0
C0
C0
FE
ENDCHAR
STARTCHAR F
ENCODING 70
SWIDTH 563 0
DWIDTH 9 0
BBX 7 11 1 0
BITMAP
FE
C0
C0
C0
C0
FC
C0
C0
C0
C0
C0
ENDCHAR
STARTCHAR G
ENCODING 71
SWIDTH 563 0
DWIDTH 9 0
BBX 7 11 1 0
BITMAP
3C
66
C2
C0
C0
CE
C6
C6
C6
6E
3A
ENDCHAR
STARTCHAR H
ENCODING 72
SWIDTH 563 0
DWIDTH 9 0
BBX 7 11 1 0
BITMAP
C6
C6
C6
C6
C6
FE
C6
C6
C6
C6
C6
ENDCHAR
STARTCHAR I
ENCODING 73
SWIDTH 563 0
DWIDTH 9 0
BBX 4 11 2 0
BITMAP
F0
60
60
60
60
60
60
60
60
60
F0
ENDCHAR
STARTCHAR J
ENCODING 74
SWIDTH 563 0
DWIDTH 9 0
BBX 7 11 1 0
BITMAP
06
06
06
06
06
06
06
C6
C6
6C
38
ENDCHAR
STARTCHAR K
ENCODING 75
SWIDTH 563 0
DWIDTH 9 0
BBX 7 11 1 0
BITMAP
C2
C6
CC
D8
F0
F8
D8
CC
CC
C6
C6
ENDCHAR
STARTCHAR L
ENCODING 76
SWIDTH 563 0
DWIDTH 9 0
BBX 7 11 1 0
BITMAP
C0
C0
C0
C0
C0
C0
C0
C0
C0
C0
FE
ENDCHAR
STARTCHAR M
ENCODING 77
SWIDTH 563 0
DWIDTH 9 0
BBX 8 11 0 0
BITMAP
C3
C3
E7
E7
FF
DB
DB
C3
C3
C3
C3
ENDCHAR
STARTCHAR N
ENCODING 78
SWIDTH 563 0
DWIDTH 9 0
BBX 7 11 1 0
BITMAP
C6
C6
E6
E6
F6
D6
DE
CE
CE
C6
C6
ENDCHAR
STARTCHAR O
ENCODING 79
SWIDTH 563 0
DWIDTH 9 0
BBX 8 11 0 0
BITMAP
3C
66
C3
C3
C3
C3
C3
C3
C3
66
3C
ENDCHAR
STARTCHAR P
ENCODING 80
SWIDTH 563 0
DWIDTH 9 0
BBX 7 11 1 0
BITMAP
F8
CC
C6
C6
C6
CC
F8
C0
C0
C0
C0
ENDCHAR
STARTCHAR Q
ENCODING 81
SWIDTH 563 0
DWIDTH 9 0
BBX 8 14 0 -3
BITMAP
3C
66
C3
C3
C3
C3
C3
C3
D3
76
3C
08
0C
07
ENDCHAR
STARTCHAR R
ENCODING 82
SWIDTH 563 0
DWIDTH 9 0
BBX 7 11 1 0
BITMAP
F8
CC
C6
C6
CE
FC
D8
CC
CC
C6
C6
ENDCHAR
STARTCHAR S
ENCODING 83
SWIDTH 563 0
DWIDTH 9 0
BBX 7 11 1 0
BITMAP
3C
66
C2
C0
78
3C
06
06
86
CC
78
ENDCHAR
STARTCHAR T
ENCODING 84
SWIDTH 563 0
DWIDTH 9 0
BBX 8 11 0 0
BITMAP
FF
18
18
18
18
18
18
18
18
18
18
ENDCHAR
STARTCHAR U
ENCODING 85
SWIDTH 563 0
DWIDTH 9 0
BBX 7 11 1 0
BITMAP
C6
C6
C6
C6
C6
C6
C6
C6
C6
6C
38
ENDCHAR
STARTCHAR V
ENCODING 86
SWIDTH 563 0
DWIDTH 9 0
BBX 7 11 1 0
BITMAP
C6
C6
C6
C6
6C
6C
6C
38
38
10
10
ENDCHAR
STARTCHAR W
ENCODING 87
SWIDTH 563 0
DWIDTH 9 0
BBX 9 11 0 0
BITMAP
C180
C180
C980
C980
DD80
DD80
7F00
7F00
3600
3600
2200
ENDCHAR
STARTCHAR X
ENCODING 88
SWIDTH 563 0
DWIDTH 9 0
BBX 7 11 1 0
BITMAP
C6
C6
6C
6C
38
38
6C
6C
C6
C6
C6
ENDCHAR
STARTCHAR Y
ENCODING 89
SWIDTH 563 0
DWIDTH 9 0
BBX 8 11 0 0
BITMAP
C3
C3
C3
66
66
3C
3C
18
18
18
18
ENDCHAR
STARTCHAR Z
ENCODING 90
SWIDTH 563 0
DWIDTH 9 0
BBX 7 11 1 0
BITMAP
FE
06
0C
0C
18
30
30
60
60
C0
FE
ENDCHAR
STARTCHAR bracketleft
ENCODING 91
SWIDTH 563 0
DWIDTH 9 0
BBX 5 14 2 -2
BITMAP
F8
C0
C0
C0
C0
C0
C0
C0
C0
C0
C0
C0
C0
F8
ENDCHAR
STARTCHAR backslash
ENCODING 92
SWIDTH 563 0
DWIDTH 9 0
BBX 7 12 1 0
BITMAP
C0
C0
60
60
30
30
18
18
0C
0C
06
06
ENDCHAR
STARTCHAR bracketright
ENCODING 93
SWIDTH 563 0
DWIDTH 9 0
BBX 5 14 2 -2
BITMAP
F8
18
18
18
18
18
18
18
18
18
18
18
18
F8
ENDCHAR
STARTCHAR asciicircum
ENCODING 94
SWIDTH 563 0
DWIDTH 9 0
BBX 7 4 1 7
BITMAP
10
38
6C
C6
ENDCHAR
STARTCHAR underscore
ENCODING 95
SWIDTH 563 0
DWIDTH 9 0
BBX 9 2 0 -3
BITMAP
FF80
FF80
ENDCHAR
STARTCHAR grave
ENCODING 96
SWIDTH 1000 0
DWIDTH 9 0
BBX 4 3 2 8
BITMAP
C0
60
30
ENDCHAR
STARTCHAR a
ENCODING 97
SWIDTH 563 0
DWIDTH 9 0
BBX 7 8 1 0
BITMAP
78
CC
0C
7C
CC
CC
CC
7E
ENDCHAR
STARTCHAR b
ENCODING 98
SWIDTH 563 0
DWIDTH 9 0
BBX 7 11 1 0
BITMAP
C0
C0
C0
D8
EC
C6
C6
C6
C6
EC
D8
ENDCHAR
STARTCHAR c
ENCODING 99
SWIDTH 563 0
DWIDTH 9 0
BBX 7 8 1 0
BITMAP
38
6C
C6
C0
C0
C6
6C
38
ENDCHAR
STARTCHAR d
ENCODING 100
SWIDTH 563 0
DWIDTH 9 0
BBX 7 11 1 0
BITMAP
06
06
06
36
6E
C6
C6
C6
C6
6E
36
ENDCHAR
STARTCHAR e
ENCODING 101
SWIDTH 563 0
DWIDTH 9 0
BBX 7 8 1 0
BITMAP
38
6C
C6
FE
C0
C0
66
3C
ENDCHAR
STARTCHAR f
ENCODING 102
SWIDTH 563 0
DWIDTH 9 0
BBX 7 11 1 0
BITMAP
1E
30
30
FE
30
30
30
30
30
30
30
ENDCHAR
STARTCHAR g
ENCODING 103
SWIDTH 563 0
DWIDTH 9 0
BBX 7 12 1 -4
BITMAP
36
6E
C6
C6
C6
C6
6E
36
06
06
CC
78
ENDCHAR
STARTCHAR h
ENCODING 104
SWIDTH 563 0
DWIDTH 9 0
BBX 7 11 1 0
BITMAP
C0
C0
C0
D8
EC
C6
C6
C6
C6
C6
C6
ENDCHAR
STARTCHAR i
ENCODING 105
SWIDTH 563 0
DWIDTH 9 0
BBX 4 11 2 0
BITMAP
30
30
00
F0
30
30
30
30
30
30
30
ENDCHAR
STARTCHAR j
ENCODING 106
SWIDTH 563 0
DWIDTH 9 0
BBX 6 15 1 -4
BITMAP
0C
0C
00
3C
0C
0C
0C
0C
0C
0C
0C
0C
CC
CC
78
ENDCHAR
STARTCHAR k
ENCODING 107
SWIDTH 563 0
DWIDTH 9 0
BBX 7 11 1 0
BITMAP
C0
C0
C0
C6
CC
D8
F0
F0
D8
CC
C6
ENDCHAR
STARTCHAR l
ENCODING 108
SWIDTH 563 0
DWIDTH 9 0
BBX 4 11 2 0
BITMAP
F0
30
30
30
30
30
30
30
30
30
30
ENDCHAR
STARTCHAR m
ENCODING 109
SWIDTH 563 0
DWIDTH 9 0
BBX 8 8 0 0
BITMAP
B6
FF
DB
DB
DB
DB
DB
DB
ENDCHAR
STARTCHAR n
ENCODING 110
SWIDTH 563 0
DWIDTH 9 0
BBX 7 8 1 0
BITMAP
D8
EC
C6
C6
C6
C6
C6
C6
ENDCHAR
STARTCHAR o
ENCODING 111
SWIDTH 563 0
DWIDTH 9 0
BBX 7 8 1 0
BITMAP
38
6C
C6
C6
C6
C6
6C
38
ENDCHAR
STARTCHAR p
ENCODING 112
SWIDTH 563 0
DWIDTH 9 0
BBX 7 12 1 -4
BITMAP
D8
EC
C6
C6
C6
C6
EC
D8
C0
C0
C0
C0
ENDCHAR
STARTCHAR q
ENCODING 113
SWIDTH 563 0
DWIDTH 9 0
BBX 7 12 1 -4
BITMAP
36
6E
C6
C6
C6
C6
6E
36
06
06
06
06
ENDCHAR
STARTCHAR r
ENCODING 114
SWIDTH 563 0
DWIDTH 9 0
BBX 7 8 1 0
BITMAP
DC
F6
C0
C0
C0
C0
C0
C0
ENDCHAR
STARTCHAR s
ENCODING 115
SWIDTH 563 0
DWIDTH 9 0
BBX 7 8 1 0
BITMAP
7C
C6
C0
78
3C
06
C6
7C
ENDCHAR
STARTCHAR t
ENCODING 116
SWIDTH 563 0
DWIDTH 9 0
BBX 7 10 1 0
BITMAP
30
30
FC
30
30
30
30
30
30
1E
ENDCHAR
STARTCHAR u
ENCODING 117
SWIDTH 563 0
DWIDTH 9 0
BBX 7 8 1 0
BITMAP
C6
C6
C6
C6
C6
C6
6E
36
ENDCHAR
STARTCHAR v
ENCODING 118
SWIDTH 563 0
DWIDTH 9 0
BBX 7 8 1 0
BITMAP
C6
C6
C6
6C
6C
38
38
10
ENDCHAR
STARTCHAR w
ENCODING 119
SWIDTH 563 0
DWIDTH 9 0
BBX 8 8 0 0
BITMAP
C3
C3
DB
DB
DB
DB
FF
66
ENDCHAR
STARTCHAR x
ENCODING 120
SWIDTH 563 0
DWIDTH 9 0
BBX 7 8 1 0
BITMAP
C6
C6
6C
38
38
6C
C6
C6
ENDCHAR
STARTCHAR y
ENCODING 121
SWIDTH 563 0
DWIDTH 9 0
BBX 7 12 1 -4
BITMAP
C6
C6
C6
C6
C6
C6
6E
36
06
06
CC
78
ENDCHAR
STARTCHAR z
ENCODING 122
SWIDTH 563 0
DWIDTH 9 0
BBX 7 8 1 0
BITMAP
FE
06
0C
18
30
60
C0
FE
ENDCHAR
STARTCHAR braceleft
ENCODING 123
SWIDTH 563 0
DWIDTH 9 0
BBX 7 15 1 -3
BITMAP
0E
18
30
30
30
30
30
E0
30
30
30
30
30
18
0E
ENDCHAR
STARTCHAR bar
ENCODING 124
SWIDTH 563 0
DWIDTH 9 0
BBX 2 15 3 -3
BITMAP
C0
C0
C0
C0
C0
C0
C0
C0
C0
C0
C0
C0
C0
C0
C0
ENDCHAR
STARTCHAR braceright
ENCODING 125
SWIDTH 563 0
DWIDTH 9 0
BBX 7 15 1 -3
BITMAP
E0
30
18
18
18
18
18
0E
18
18
18
18
18
30
E0
ENDCHAR
STARTCHAR asciitilde
ENCODING 126
SWIDTH 563 0
DWIDTH 9 0
BBX 6 3 1 3
BITMAP
64
FC
98
ENDCHAR
STARTCHAR exclamdown
ENCODING 161
SWIDTH 563 0
DWIDTH 9 0
BBX 2 11 3 -3
BITMAP
C0
C0
00
00
C0
C0
C0
C0
C0
C0
C0
ENDCHAR
STARTCHAR cent
ENCODING 162
SWIDTH 563 0
DWIDTH 9 0
BBX 7 10 1 0
BITMAP
18
18
7C
C6
C0
C0
C6
7C
18
18
ENDCHAR
STARTCHAR sterling
ENCODING 163
SWIDTH 563 0
DWIDTH 9 0
BBX 7 11 1 0
BITMAP
3C
66
62
60
30
FC
30
30
62
FE
BC
ENDCHAR
STARTCHAR currency
ENCODING 164
SWIDTH 563 0
DWIDTH 9 0
BBX 6 6 1 2
BITMAP
CC
FC
48
48
FC
CC
ENDCHAR
STARTCHAR yen
ENCODING 165
SWIDTH 563 0
DWIDTH 9 0
BBX 8 11 0 0
BITMAP
C3
C3
66
66
3C
18
7E
18
7E
18
3C
ENDCHAR
STARTCHAR brokenbar
ENCODING 166
SWIDTH 563 0
DWIDTH 9 0
BBX 2 15 3 -3
BITMAP
C0
C0
C0
C0
C0
C0
C0
00
C0
C0
C0
C0
C0
C0
C0
ENDCHAR
STARTCHAR section
ENCODING 167
SWIDTH 563 0
DWIDTH 9 0
BBX 7 14 1 -3
BITMAP
7C
C6
C0
E0
78
CC
C6
C6
66
3C
0E
06
C6
7C
ENDCHAR
STARTCHAR dieresis
ENCODING 168
SWIDTH 563 0
DWIDTH 9 0
BBX 5 2 2 8
BITMAP
D8
D8
ENDCHAR
STARTCHAR copyright
ENCODING 169
SWIDTH 563 0
DWIDTH 9 0
BBX 8 9 0 0
BITMAP
3C
66
DB
B5
B1
B5
DB
66
3C
ENDCHAR
STARTCHAR ordfeminine
ENCODING 170
SWIDTH 563 0
DWIDTH 9 0
BBX 5 8 2 3
BITMAP
70
98
78
D8
68
00
F8
F8
ENDCHAR
STARTCHAR guillemotleft
ENCODING 171
SWIDTH 563 0
DWIDTH 9 0
BBX 7 8 1 0
BITMAP
12
36
6C
D8
D8
6C
36
12
ENDCHAR
STARTCHAR logicalnot
ENCODING 172
SWIDTH 563 0
DWIDTH 9 0
BBX 7 4 1 2
BITMAP
FE
FE
06
06
ENDCHAR
STARTCHAR registered
ENCODING 174
SWIDTH 563 0
DWIDTH 9 0
BBX 8 9 0 0
BITMAP
3C
66
FB
AD
BD
A9
EF
66
3C
ENDCHAR
STARTCHAR macron
ENCODING 175
SWIDTH 563 0
DWIDTH 9 0
BBX 4 2 2 8
BITMAP
F0
F0
ENDCHAR
STARTCHAR degree
ENCODING 176
SWIDTH 563 0
DWIDTH 9 0
BBX 5 3 2 5
BITMAP
70
D8
70
ENDCHAR
STARTCHAR plusminus
ENCODING 177
SWIDTH 563 0
DWIDTH 9 0
BBX 8 11 0 0
BITMAP
18
18
18
FF
FF
18
18
18
00
FF
FF
ENDCHAR
STARTCHAR twosuperior
ENCODING 178
SWIDTH 563 0
DWIDTH 9 0
BBX 5 7 2 3
BITMAP
70
F8
98
38
60
F8
F8
ENDCHAR
STARTCHAR threesuperior
ENCODING 179
SWIDTH 563 0
DWIDTH 9 0
BBX 5 7 2 3
BITMAP
70
F8
18
30
18
F8
70
ENDCHAR
STARTCHAR acute
ENCODING 180
SWIDTH 563 0
DWIDTH 9 0
BBX 4 3 2 8
BITMAP
30
60
C0
ENDCHAR
STARTCHAR mu
ENCODING 181
SWIDTH 563 0
DWIDTH 9 0
BBX 7 11 1 -3
BITMAP
C6
C6
C6
C6
C6
C6
EE
F6
C0
C0
C0
ENDCHAR
STARTCHAR paragraph
ENCODING 182
SWIDTH 563 0
DWIDTH 9 0
BBX 8 13 0 -2
BITMAP
7F
F6
B6
B6
B6
F6
76
36
36
36
36
36
36
ENDCHAR
STARTCHAR periodcentered
ENCODING 183
SWIDTH 563 0
DWIDTH 9 0
BBX 2 2 3 4
BITMAP
C0
C0
ENDCHAR
STARTCHAR cedilla
ENCODING 184
SWIDTH 563 0
DWIDTH 9 0
BBX 4 4 2 -4
BITMAP
60
70
10
F0
ENDCHAR
STARTCHAR onesuperior
ENCODING 185
SWIDTH 563 0
DWIDTH 9 0
BBX 4 7 2 4
BITMAP
60
E0
60
60
60
60
F0
ENDCHAR
STARTCHAR ordmasculine
ENCODING 186
SWIDTH 563 0
DWIDTH 9 0
BBX 5 8 2 3
BITMAP
70
D8
D8
D8
70
00
F8
F8
ENDCHAR
STARTCHAR guillemotright
ENCODING 187
SWIDTH 563 0
DWIDTH 9 0
BBX 7 8 1 0
BITMAP
90
D8
6C
36
36
6C
D8
90
ENDCHAR
STARTCHAR onequarter
ENCODING 188
SWIDTH 563 0
DWIDTH 9 0
BBX 9 14 0 -2
BITMAP
3000
7000
3000
3000
3300
3600
7C00
1B00
3700
6F00
DB00
1F80
0300
0300
ENDCHAR
STARTCHAR onehalf
ENCODING 189
SWIDTH 563 0
DWIDTH 9 0
BBX 7 14 1 -2
BITMAP
60
E0
60
60
66
6C
F8
3C
7E
D2
06
0C
1E
1E
ENDCHAR
STARTCHAR threequarters
ENCODING 190
SWIDTH 563 0
DWIDTH 9 0
BBX 9 14 0 -2
BITMAP
7000
F800
1800
3000
1B00
FE00
7C00
1B00
3700
6F00
1B00
1F80
0300
0300
ENDCHAR
STARTCHAR questiondown
ENCODING 191
SWIDTH 563 0
DWIDTH 9 0
BBX 7 11 1 -3
BITMAP
30
30
00
30
30
60
C0
C6
C6
6C
38
ENDCHAR
STARTCHAR Agrave
ENCODING 192
SWIDTH 563 0
DWIDTH 9 0
BBX 7 12 1 0
BITMAP
30
18
00
10
38
38
6C
6C
C6
FE
C6
C6
ENDCHAR
STARTCHAR Aacute
ENCODING 193
SWIDTH 563 0
DWIDTH 9 0
BBX 7 12 1 0
BITMAP
18
30
00
10
38
38
6C
6C
C6
FE
C6
C6
ENDCHAR
STARTCHAR Acircumflex
ENCODING 194
SWIDTH 563 0
DWIDTH 9 0
BBX 7 12 1 0
BITMAP
38
6C
00
10
38
38
6C
6C
C6
FE
C6
C6
ENDCHAR
STARTCHAR Atilde
ENCODING 195
SWIDTH 563 0
DWIDTH 9 0
BBX 7 12 1 0
BITMAP
74
5C
00
10
38
38
6C
6C
C6
FE
C6
C6
ENDCHAR
STARTCHAR Adieresis
ENCODING 196
SWIDTH 563 0
DWIDTH 9 0
BBX 7 12 1 0
BITMAP
6C
6C
00
10
38
38
6C
6C
C6
FE
C6
C6
ENDCHAR
STARTCHAR Aring
ENCODING 197
SWIDTH 563 0
DWIDTH 9 0
BBX 7 12 1 0
BITMAP
38
28
38
10
38
38
6C
6C
C6
FE
C6
C6
ENDCHAR
STARTCHAR AE
ENCODING 198
SWIDTH 563 0
DWIDTH 9 0
BBX 8 10 0 0
BITMAP
3F
78
58
D8
DE
F8
D8
D8
D8
DF
ENDCHAR
STARTCHAR Ccedilla
ENCODING 199
SWIDTH 563 0
DWIDTH 9 0
BBX 7 13 1 -4
BITMAP
3C
66
C2
C0
C0
C0
C2
66
3C
18
1C
04
3C
ENDCHAR
STARTCHAR Egrave
ENCODING 200
SWIDTH 563 0
DWIDTH 9 0
BBX 7 12 1 0
BITMAP
30
18
00
FE
C0
C0
C0
FC
C0
C0
C0
FE
ENDCHAR
STARTCHAR Eacute
ENCODING 201
SWIDTH 563 0
DWIDTH 9 0
BBX 7 12 1 0
BITMAP
18
30
00
FE
C0
C0
C0
FC
C0
C0
C0
FE
ENDCHAR
STARTCHAR Ecircumflex
ENCODING 202
SWIDTH 563 0
DWIDTH 9 0
BBX 7 12 1 0
BITMAP
38
6C
00
FE
C0
C0
C0
FC
C0
C0
C0
FE
ENDCHAR
STARTCHAR Edieresis
ENCODING 203
SWIDTH 563 0
DWIDTH 9 0
BBX 7 12 1 0
BITMAP
6C
6C
00
FE
C0
C0
C0
FC
C0
C0
C0
FE
ENDCHAR
STARTCHAR Igrave
ENCODING 204
SWIDTH 563 0
DWIDTH 9 0
BBX 4 12 2 0
BITMAP
C0
60
00
F0
60
60
60
60
60
60
60
F0
ENDCHAR
STARTCHAR Iacute
ENCODING 205
SWIDTH 563 0
DWIDTH 9 0
BBX 4 12 2 0
BITMAP
30
60
00
F0
60
60
60
60
60
60
60
F0
ENDCHAR
STARTCHAR Icircumflex
ENCODING 206
SWIDTH 563 0
DWIDTH 9 0
BBX 5 12 2 0
BITMAP
70
D8
00
F0
60
60
60
60
60
60
60
F0
ENDCHAR
STARTCHAR Idieresis
ENCODING 207
SWIDTH 563 0
DWIDTH 9 0
BBX 5 12 2 0
BITMAP
D8
D8
00
F0
60
60
60
60
60
60
60
F0
ENDCHAR
STARTCHAR Eth
ENCODING 208
SWIDTH 563 0
DWIDTH 9 0
BBX 8 9 0 0
BITMAP
7C
66
63
63
F3
63
63
66
7C
ENDCHAR
STARTCHAR Ntilde
ENCODING 209
SWIDTH 563 0
DWIDTH 9 0
BBX 7 12 1 0
BITMAP
74
5C
00
C6
E6
E6
F6
D6
DE
CE
CE
C6
ENDCHAR
STARTCHAR Ograve
ENCODING 210
SWIDTH 563 0
DWIDTH 9 0
BBX 8 12 0 0
BITMAP
30
18
00
3C
66
C3
C3
C3
C3
C3
66
3C
ENDCHAR
STARTCHAR Oacute
ENCODING 211
SWIDTH 563 0
DWIDTH 9 0
BBX 8 12 0 0
BITMAP
0C
18
00
3C
66
C3
C3
C3
C3
C3
66
3C
ENDCHAR
STARTCHAR Ocircumflex
ENCODING 212
SWIDTH 563 0
DWIDTH 9 0
BBX 8 12 0 0
BITMAP
1C
36
00
3C
66
C3
C3
C3
C3
C3
66
3C
ENDCHAR
STARTCHAR Otilde
ENCODING 213
SWIDTH 563 0
DWIDTH 9 0
BBX 8 12 0 0
BITMAP
3A
2E
00
3C
66
C3
C3
C3
C3
C3
66
3C
ENDCHAR
STARTCHAR Odieresis
ENCODING 214
SWIDTH 563 0
DWIDTH 9 0
BBX 8 12 0 0
BITMAP
36
36
00
3C
66
C3
C3
C3
C3
C3
66
3C
ENDCHAR
STARTCHAR multiply
ENCODING 215
SWIDTH 563 0
DWIDTH 9 0
BBX 6 7 1 0
BITMAP
84
CC
78
30
78
CC
84
ENDCHAR
STARTCHAR Oslash
ENCODING 216
SWIDTH 563 0
DWIDTH 9 0
BBX 8 9 0 0
BITMAP
3D
66
CF
CB
DB
D3
F3
66
BC
ENDCHAR
STARTCHAR Ugrave
ENCODING 217
SWIDTH 563 0
DWIDTH 9 0
BBX 7 12 1 0
BITMAP
30
18
00
C6
C6
C6
C6
C6
C6
C6
6C
38
ENDCHAR
STARTCHAR Uacute
ENCODING 218
SWIDTH 563 0
DWIDTH 9 0
BBX 7 12 1 0
BITMAP
18
30
00
C6
C6
C6
C6
C6
C6
C6
6C
38
ENDCHAR
STARTCHAR Ucircumflex
ENCODING 219
SWIDTH 563 0
DWIDTH 9 0
BBX 7 12 1 0
BITMAP
38
6C
00
C6
C6
C6
C6
C6
C6
C6
6C
38
ENDCHAR
STARTCHAR Udieresis
ENCODING 220
SWIDTH 563 0
DWIDTH 9 0
BBX 7 12 1 0
BITMAP
6C
6C
00
C6
C6
C6
C6
C6
C6
C6
6C
38
ENDCHAR
STARTCHAR Yacute
ENCODING 221
SWIDTH 563 0
DWIDTH 9 0
BBX 8 12 0 0
BITMAP
0C
18
00
C3
C3
66
66
3C
3C
18
18
18
ENDCHAR
STARTCHAR Thorn
ENCODING 222
SWIDTH 563 0
DWIDTH 9 0
BBX 8 11 0 0
BITMAP
F0
60
7C
66
63
63
66
7C
60
60
F0
ENDCHAR
STARTCHAR germandbls
ENCODING 223
SWIDTH 563 0
DWIDTH 9 0
BBX 7 10 1 0
BITMAP
30
78
CC
CC
D8
CC
C6
C6
E6
DC
ENDCHAR
STARTCHAR agrave
ENCODING 224
SWIDTH 563 0
DWIDTH 9 0
BBX 7 11 1 0
BITMAP
60
30
00
78
CC
0C
7C
CC
CC
CC
7E
ENDCHAR
STARTCHAR aacute
ENCODING 225
SWIDTH 563 0
DWIDTH 9 0
BBX 7 11 1 0
BITMAP
18
30
00
78
CC
0C
7C
CC
CC
CC
7E
ENDCHAR
STARTCHAR acircumflex
ENCODING 226
SWIDTH 563 0
DWIDTH 9 0
BBX 7 11 1 0
BITMAP
38
6C
00
78
CC
0C
7C
CC
CC
CC
7E
ENDCHAR
STARTCHAR atilde
ENCODING 227
SWIDTH 563 0
DWIDTH 9 0
BBX 7 11 1 0
BITMAP
74
5C
00
78
CC
0C
7C
CC
CC
CC
7E
ENDCHAR
STARTCHAR adieresis
ENCODING 228
SWIDTH 563 0
DWIDTH 9 0
BBX 7 11 1 0
BITMAP
6C
6C
00
78
CC
0C
7C
CC
CC
CC
7E
ENDCHAR
STARTCHAR aring
ENCODING 229
SWIDTH 563 0
DWIDTH 9 0
BBX 7 12 1 0
BITMAP
38
28
38
00
78
CC
0C
7C
CC
CC
CC
7E
ENDCHAR
STARTCHAR ae
ENCODING 230
SWIDTH 563 0
DWIDTH 9 0
BBX 8 8 0 0
BITMAP
7E
DB
1B
7F
D8
D8
DB
7E
ENDCHAR
STARTCHAR ccedilla
ENCODING 231
SWIDTH 563 0
DWIDTH 9 0
BBX 7 12 1 -4
BITMAP
38
6C
C6
C0
C0
C6
6C
38
18
1C
04
3C
ENDCHAR
STARTCHAR egrave
ENCODING 232
SWIDTH 563 0
DWIDTH 9 0
BBX 7 11 1 0
BITMAP
30
18
00
38
6C
C6
FE
C0
C0
66
3C
ENDCHAR
STARTCHAR eacute
ENCODING 233
SWIDTH 563 0
DWIDTH 9 0
BBX 7 11 1 0
BITMAP
18
30
00
38
6C
C6
FE
C0
C0
66
3C
ENDCHAR
STARTCHAR ecircumflex
ENCODING 234
SWIDTH 563 0
DWIDTH 9 0
BBX 7 11 1 0
BITMAP
38
6C
00
38
6C
C6
FE
C0
C0
66
3C
ENDCHAR
STARTCHAR edieresis
ENCODING 235
SWIDTH 563 0
DWIDTH 9 0
BBX 7 11 1 0
BITMAP
6C
6C
00
38
6C
C6
FE
C0
C0
66
3C
ENDCHAR
STARTCHAR igrave
ENCODING 236
SWIDTH 563 0
DWIDTH 9 0
BBX 4 11 2 0
BITMAP
60
30
00
F0
30
30
30
30
30
30
30
ENDCHAR
STARTCHAR iacute
ENCODING 237
SWIDTH 563 0
DWIDTH 9 0
BBX 4 11 2 0
BITMAP
30
60
00
F0
30
30
30
30
30
30
30
ENDCHAR
STARTCHAR icircumflex
ENCODING 238
SWIDTH 563 0
DWIDTH 9 0
BBX 5 11 2 0
BITMAP
70
D8
00
F0
30
30
30
30
30
30
30
ENDCHAR
STARTCHAR idieresis
ENCODING 239
SWIDTH 563 0
DWIDTH 9 0
BBX 5 11 2 0
BITMAP
D8
D8
00
F0
30
30
30
30
30
30
30
ENDCHAR
STARTCHAR eth
ENCODING 240
SWIDTH 563 0
DWIDTH 9 0
BBX 7 11 1 0
BITMAP
D8
70
D8
3C
6E
C6
C6
C6
C6
6C
38
ENDCHAR
STARTCHAR ntilde
ENCODING 241
SWIDTH 563 0
DWIDTH 9 0
BBX 7 11 1 0
BITMAP
74
5C
00
D8
EC
C6
C6
C6
C6
C6
C6
ENDCHAR
STARTCHAR ograve
ENCODING 242
SWIDTH 563 0
DWIDTH 9 0
BBX 7 11 1 0
BITMAP
30
18
00
38
6C
C6
C6
C6
C6
6C
38
ENDCHAR
STARTCHAR oacute
ENCODING 243
SWIDTH 563 0
DWIDTH 9 0
BBX 7 11 1 0
BITMAP
18
30
00
38
6C
C6
C6
C6
C6
6C
38
ENDCHAR
STARTCHAR ocircumflex
ENCODING 244
SWIDTH 563 0
DWIDTH 9 0
BBX 7 11 1 0
BITMAP
38
6C
00
38
6C
C6
C6
C6
C6
6C
38
ENDCHAR
STARTCHAR otilde
ENCODING 245
SWIDTH 563 0
DWIDTH 9 0
BBX 7 11 1 0
BITMAP
74
5C
00
38
6C
C6
C6
C6
C6
6C
38
ENDCHAR
STARTCHAR odieresis
ENCODING 246
SWIDTH 563 0
DWIDTH 9 0
BBX 7 11 1 0
BITMAP
6C
6C
00
38
6C
C6
C6
C6
C6
6C
38
ENDCHAR
STARTCHAR divide
ENCODING 247
SWIDTH 563 0
DWIDTH 9 0
BBX 8 8 0 0
BITMAP
18
18
00
FF
FF
00
18
18
ENDCHAR
STARTCHAR oslash
ENCODING 248
SWIDTH 563 0
DWIDTH 9 0
BBX 7 8 1 0
BITMAP
3A
64
CE
D6
D6
E6
4C
B8
ENDCHAR
STARTCHAR ugrave
ENCODING 249
SWIDTH 563 0
DWIDTH 9 0
BBX 7 11 1 0
BITMAP
30
18
00
C6
C6
C6
C6
C6
C6
6E
36
ENDCHAR
STARTCHAR uacute
ENCODING 250
SWIDTH 563 0
DWIDTH 9 0
BBX 7 11 1 0
BITMAP
18
30
00
C6
C6
C6
C6
C6
C6
6E
36
ENDCHAR
STARTCHAR ucircumflex
ENCODING 251
SWIDTH 563 0
DWIDTH 9 0
BBX 7 11 1 0
BITMAP
38
6C
00
C6
C6
C6
C6
C6
C6
6E
36
ENDCHAR
STARTCHAR udieresis
ENCODING 252
SWIDTH 563 0
DWIDTH 9 0
BBX 7 11 1 0
BITMAP
6C
6C
00
C6
C6
C6
C6
C6
C6
6E
36
ENDCHAR
STARTCHAR yacute
ENCODING 253
SWIDTH 563 0
DWIDTH 9 0
BBX 7 15 1 -4
BITMAP
18
30
00
C6
C6
C6
C6
C6
C6
6E
36
06
06
CC
78
ENDCHAR
STARTCHAR thorn
ENCODING 254
SWIDTH 563 0
DWIDTH 9 0
BBX 8 13 0 -2
BITMAP
E0
60
7C
76
63
63
63
63
76
7C
60
60
F0
ENDCHAR
STARTCHAR ydieresis
ENCODING 255
SWIDTH 563 0
DWIDTH 9 0
BBX 7 15 1 -4
BITMAP
6C
6C
00
C6
C6
C6
C6
C6
C6
6E
36
06
06
CC
78
ENDCHAR
STARTCHAR quoteright
ENCODING -1
SWIDTH 563 0
DWIDTH 9 0
BBX 4 4 3 7
BITMAP
30
30
60
C0
ENDCHAR
STARTCHAR minus
ENCODING -1
SWIDTH 563 0
DWIDTH 9 0
BBX 8 2 0 4
BITMAP
FF
FF
ENDCHAR
STARTCHAR quoteleft
ENCODING -1
SWIDTH 563 0
DWIDTH 9 0
BBX 4 4 2 7
BITMAP
C0
C0
60
30
ENDCHAR
ENDFONT
